<mxfile host="app.diagrams.net" modified="2023-09-11T08:20:30.884Z" agent="Mozilla/5.0 (Windows NT 10.0; Win64; x64) AppleWebKit/537.36 (KHTML, like Gecko) Chrome/114.0.0.0 YaBrowser/23.7.4.990 (corp) Yowser/2.5 Safari/537.36" etag="YQUMl3-TYl4gmMx7Nc-j" version="21.7.4" type="device">
  <diagram name="Страница 1" id="_6IwLtA-Br_-3oHktkY4">
    <mxGraphModel dx="1838" dy="1960" grid="1" gridSize="10" guides="1" tooltips="1" connect="1" arrows="1" fold="1" page="1" pageScale="1" pageWidth="827" pageHeight="1169" math="0" shadow="0">
      <root>
        <mxCell id="0" />
        <mxCell id="1" parent="0" />
        <mxCell id="wGbf4FxbfsjJKV3TlaPt-10" style="rounded=0;orthogonalLoop=1;jettySize=auto;html=1;startArrow=none;endArrow=none;segment=10;sourcePerimeterSpacing=0;targetPerimeterSpacing=0;exitX=0.5;exitY=1;exitDx=0;exitDy=0;entryX=0.5;entryY=0;entryDx=0;entryDy=0;" parent="1" source="wGbf4FxbfsjJKV3TlaPt-1" edge="1">
          <mxGeometry relative="1" as="geometry">
            <mxPoint x="390" y="-1082" as="targetPoint" />
          </mxGeometry>
        </mxCell>
        <mxCell id="wGbf4FxbfsjJKV3TlaPt-1" value="начало программы" style="ellipse;whiteSpace=wrap;html=1;align=center;newEdgeStyle={&quot;edgeStyle&quot;:&quot;entityRelationEdgeStyle&quot;,&quot;startArrow&quot;:&quot;none&quot;,&quot;endArrow&quot;:&quot;none&quot;,&quot;segment&quot;:10,&quot;curved&quot;:1,&quot;sourcePerimeterSpacing&quot;:0,&quot;targetPerimeterSpacing&quot;:0};treeFolding=1;treeMoving=1;" parent="1" vertex="1">
          <mxGeometry x="329" y="-1159" width="123" height="60" as="geometry" />
        </mxCell>
        <mxCell id="wGbf4FxbfsjJKV3TlaPt-18" style="edgeStyle=elbowEdgeStyle;rounded=0;orthogonalLoop=1;jettySize=auto;html=1;startArrow=none;endArrow=none;exitX=0.5;exitY=1;exitDx=0;exitDy=0;entryX=0.5;entryY=0;entryDx=0;entryDy=0;" parent="1" target="wGbf4FxbfsjJKV3TlaPt-7" edge="1">
          <mxGeometry relative="1" as="geometry">
            <mxPoint x="390.5" y="-670" as="sourcePoint" />
          </mxGeometry>
        </mxCell>
        <mxCell id="wGbf4FxbfsjJKV3TlaPt-28" style="edgeStyle=none;rounded=0;orthogonalLoop=1;jettySize=auto;html=1;exitX=1;exitY=0.5;exitDx=0;exitDy=0;entryX=1;entryY=0.5;entryDx=0;entryDy=0;" parent="1" edge="1">
          <mxGeometry relative="1" as="geometry">
            <mxPoint x="453" y="-379" as="targetPoint" />
            <mxPoint x="451" y="-804" as="sourcePoint" />
            <Array as="points">
              <mxPoint x="521" y="-804" />
              <mxPoint x="521" y="-379" />
            </Array>
          </mxGeometry>
        </mxCell>
        <mxCell id="wGbf4FxbfsjJKV3TlaPt-30" value="да" style="edgeLabel;html=1;align=center;verticalAlign=middle;resizable=0;points=[];" parent="wGbf4FxbfsjJKV3TlaPt-28" vertex="1" connectable="0">
          <mxGeometry x="-0.9261" y="1" relative="1" as="geometry">
            <mxPoint as="offset" />
          </mxGeometry>
        </mxCell>
        <mxCell id="wGbf4FxbfsjJKV3TlaPt-31" style="edgeStyle=none;rounded=0;orthogonalLoop=1;jettySize=auto;html=1;exitX=0.5;exitY=1;exitDx=0;exitDy=0;entryX=0.5;entryY=0;entryDx=0;entryDy=0;" parent="1" edge="1">
          <mxGeometry relative="1" as="geometry">
            <mxPoint x="390.5" y="-730" as="targetPoint" />
            <mxPoint x="390" y="-765" as="sourcePoint" />
          </mxGeometry>
        </mxCell>
        <mxCell id="wGbf4FxbfsjJKV3TlaPt-32" value="нет" style="edgeLabel;html=1;align=center;verticalAlign=middle;resizable=0;points=[];" parent="wGbf4FxbfsjJKV3TlaPt-31" vertex="1" connectable="0">
          <mxGeometry x="0.2248" relative="1" as="geometry">
            <mxPoint as="offset" />
          </mxGeometry>
        </mxCell>
        <mxCell id="wGbf4FxbfsjJKV3TlaPt-6" value="конец файла?" style="rhombus;whiteSpace=wrap;html=1;" parent="1" vertex="1">
          <mxGeometry x="332" y="-847" width="120" height="90" as="geometry" />
        </mxCell>
        <mxCell id="wGbf4FxbfsjJKV3TlaPt-27" style="edgeStyle=none;rounded=0;orthogonalLoop=1;jettySize=auto;html=1;exitX=0.5;exitY=1;exitDx=0;exitDy=0;entryX=0.5;entryY=0;entryDx=0;entryDy=0;" parent="1" source="wGbf4FxbfsjJKV3TlaPt-7" target="wGbf4FxbfsjJKV3TlaPt-8" edge="1">
          <mxGeometry relative="1" as="geometry" />
        </mxCell>
        <mxCell id="wGbf4FxbfsjJKV3TlaPt-7" value="первый элемент-ключ" style="rounded=0;whiteSpace=wrap;html=1;" parent="1" vertex="1">
          <mxGeometry x="332" y="-650" width="120" height="60" as="geometry" />
        </mxCell>
        <mxCell id="wGbf4FxbfsjJKV3TlaPt-25" style="edgeStyle=none;rounded=0;orthogonalLoop=1;jettySize=auto;html=1;exitX=0.5;exitY=1;exitDx=0;exitDy=0;entryX=0.5;entryY=0;entryDx=0;entryDy=0;" parent="1" source="wGbf4FxbfsjJKV3TlaPt-8" target="wGbf4FxbfsjJKV3TlaPt-22" edge="1">
          <mxGeometry relative="1" as="geometry" />
        </mxCell>
        <mxCell id="wGbf4FxbfsjJKV3TlaPt-8" value="третий элемент-значение(int)" style="rounded=0;whiteSpace=wrap;html=1;" parent="1" vertex="1">
          <mxGeometry x="332" y="-578.5" width="120" height="60" as="geometry" />
        </mxCell>
        <mxCell id="wGbf4FxbfsjJKV3TlaPt-22" value="n+=1" style="rounded=0;whiteSpace=wrap;html=1;" parent="1" vertex="1">
          <mxGeometry x="332" y="-499" width="120" height="60" as="geometry" />
        </mxCell>
        <mxCell id="wGbf4FxbfsjJKV3TlaPt-43" style="edgeStyle=none;rounded=0;orthogonalLoop=1;jettySize=auto;html=1;exitX=0.5;exitY=1;exitDx=0;exitDy=0;entryX=0.5;entryY=0;entryDx=0;entryDy=0;" parent="1" source="wGbf4FxbfsjJKV3TlaPt-23" target="wGbf4FxbfsjJKV3TlaPt-42" edge="1">
          <mxGeometry relative="1" as="geometry" />
        </mxCell>
        <mxCell id="wGbf4FxbfsjJKV3TlaPt-23" value="закрытие файла &quot;стелажи&quot;" style="rounded=0;whiteSpace=wrap;html=1;" parent="1" vertex="1">
          <mxGeometry x="332" y="-409" width="120" height="60" as="geometry" />
        </mxCell>
        <mxCell id="wGbf4FxbfsjJKV3TlaPt-34" style="edgeStyle=none;rounded=0;orthogonalLoop=1;jettySize=auto;html=1;exitX=0.5;exitY=1;exitDx=0;exitDy=0;entryX=0.5;entryY=0;entryDx=0;entryDy=0;" parent="1" source="wGbf4FxbfsjJKV3TlaPt-33" target="wGbf4FxbfsjJKV3TlaPt-7" edge="1">
          <mxGeometry relative="1" as="geometry" />
        </mxCell>
        <mxCell id="wGbf4FxbfsjJKV3TlaPt-33" value="считываем n строку" style="rounded=0;whiteSpace=wrap;html=1;" parent="1" vertex="1">
          <mxGeometry x="332" y="-730" width="120" height="60" as="geometry" />
        </mxCell>
        <mxCell id="wGbf4FxbfsjJKV3TlaPt-38" style="edgeStyle=none;rounded=0;orthogonalLoop=1;jettySize=auto;html=1;exitX=0.5;exitY=1;exitDx=0;exitDy=0;entryX=0.5;entryY=0;entryDx=0;entryDy=0;" parent="1" source="wGbf4FxbfsjJKV3TlaPt-35" target="wGbf4FxbfsjJKV3TlaPt-36" edge="1">
          <mxGeometry relative="1" as="geometry" />
        </mxCell>
        <mxCell id="wGbf4FxbfsjJKV3TlaPt-35" value="&#xa;&lt;span style=&quot;color: rgb(0, 0, 0); font-family: Helvetica; font-size: 12px; font-style: normal; font-variant-ligatures: normal; font-variant-caps: normal; font-weight: 400; letter-spacing: normal; orphans: 2; text-align: center; text-indent: 0px; text-transform: none; widows: 2; word-spacing: 0px; -webkit-text-stroke-width: 0px; background-color: rgb(251, 251, 251); text-decoration-thickness: initial; text-decoration-style: initial; text-decoration-color: initial; float: none; display: inline !important;&quot;&gt;создание словаря&lt;/span&gt;&#xa;&#xa;" style="rounded=0;whiteSpace=wrap;html=1;" parent="1" vertex="1">
          <mxGeometry x="332" y="-1080" width="120" height="60" as="geometry" />
        </mxCell>
        <mxCell id="wGbf4FxbfsjJKV3TlaPt-40" style="edgeStyle=none;rounded=0;orthogonalLoop=1;jettySize=auto;html=1;exitX=0.5;exitY=1;exitDx=0;exitDy=0;entryX=0.5;entryY=0;entryDx=0;entryDy=0;" parent="1" source="wGbf4FxbfsjJKV3TlaPt-36" target="wGbf4FxbfsjJKV3TlaPt-39" edge="1">
          <mxGeometry relative="1" as="geometry" />
        </mxCell>
        <mxCell id="wGbf4FxbfsjJKV3TlaPt-36" value="&#xa;&lt;span style=&quot;color: rgb(0, 0, 0); font-family: Helvetica; font-size: 12px; font-style: normal; font-variant-ligatures: normal; font-variant-caps: normal; font-weight: 400; letter-spacing: normal; orphans: 2; text-align: center; text-indent: 0px; text-transform: none; widows: 2; word-spacing: 0px; -webkit-text-stroke-width: 0px; background-color: rgb(251, 251, 251); text-decoration-thickness: initial; text-decoration-style: initial; text-decoration-color: initial; float: none; display: inline !important;&quot;&gt;открытие файла &quot;стелажи&quot;&lt;/span&gt;&#xa;&#xa;" style="rounded=0;whiteSpace=wrap;html=1;" parent="1" vertex="1">
          <mxGeometry x="332" y="-1000" width="120" height="60" as="geometry" />
        </mxCell>
        <mxCell id="wGbf4FxbfsjJKV3TlaPt-41" style="edgeStyle=none;rounded=0;orthogonalLoop=1;jettySize=auto;html=1;exitX=0.5;exitY=1;exitDx=0;exitDy=0;entryX=0.5;entryY=0;entryDx=0;entryDy=0;" parent="1" source="wGbf4FxbfsjJKV3TlaPt-39" target="wGbf4FxbfsjJKV3TlaPt-6" edge="1">
          <mxGeometry relative="1" as="geometry">
            <mxPoint x="392" y="-850" as="targetPoint" />
          </mxGeometry>
        </mxCell>
        <mxCell id="wGbf4FxbfsjJKV3TlaPt-39" value="n = 0" style="rounded=0;whiteSpace=wrap;html=1;" parent="1" vertex="1">
          <mxGeometry x="332" y="-925" width="120" height="60" as="geometry" />
        </mxCell>
        <mxCell id="wGbf4FxbfsjJKV3TlaPt-47" style="edgeStyle=none;rounded=0;orthogonalLoop=1;jettySize=auto;html=1;exitX=0.5;exitY=1;exitDx=0;exitDy=0;entryX=0.5;entryY=0;entryDx=0;entryDy=0;" parent="1" source="wGbf4FxbfsjJKV3TlaPt-42" target="wGbf4FxbfsjJKV3TlaPt-46" edge="1">
          <mxGeometry relative="1" as="geometry" />
        </mxCell>
        <mxCell id="wGbf4FxbfsjJKV3TlaPt-42" value="открытие файла &quot;позиция&quot;" style="rounded=0;whiteSpace=wrap;html=1;" parent="1" vertex="1">
          <mxGeometry x="332" y="-320" width="120" height="60" as="geometry" />
        </mxCell>
        <mxCell id="wGbf4FxbfsjJKV3TlaPt-50" style="edgeStyle=none;rounded=0;orthogonalLoop=1;jettySize=auto;html=1;exitX=0.5;exitY=1;exitDx=0;exitDy=0;entryX=0.5;entryY=0;entryDx=0;entryDy=0;" parent="1" source="wGbf4FxbfsjJKV3TlaPt-44" target="wGbf4FxbfsjJKV3TlaPt-49" edge="1">
          <mxGeometry relative="1" as="geometry" />
        </mxCell>
        <mxCell id="wGbf4FxbfsjJKV3TlaPt-51" value="нет" style="edgeLabel;html=1;align=center;verticalAlign=middle;resizable=0;points=[];" parent="wGbf4FxbfsjJKV3TlaPt-50" vertex="1" connectable="0">
          <mxGeometry x="-0.1333" y="2" relative="1" as="geometry">
            <mxPoint as="offset" />
          </mxGeometry>
        </mxCell>
        <mxCell id="wGbf4FxbfsjJKV3TlaPt-66" style="edgeStyle=none;rounded=0;orthogonalLoop=1;jettySize=auto;html=1;exitX=0;exitY=0.5;exitDx=0;exitDy=0;entryX=0;entryY=0.5;entryDx=0;entryDy=0;" parent="1" source="wGbf4FxbfsjJKV3TlaPt-44" target="wGbf4FxbfsjJKV3TlaPt-65" edge="1">
          <mxGeometry relative="1" as="geometry">
            <mxPoint x="332" y="445" as="targetPoint" />
            <Array as="points">
              <mxPoint x="240" y="-115" />
              <mxPoint x="240" y="430" />
            </Array>
          </mxGeometry>
        </mxCell>
        <mxCell id="wGbf4FxbfsjJKV3TlaPt-67" value="да" style="edgeLabel;html=1;align=center;verticalAlign=middle;resizable=0;points=[];" parent="wGbf4FxbfsjJKV3TlaPt-66" vertex="1" connectable="0">
          <mxGeometry x="-0.2903" y="-2" relative="1" as="geometry">
            <mxPoint as="offset" />
          </mxGeometry>
        </mxCell>
        <mxCell id="wGbf4FxbfsjJKV3TlaPt-44" value="конец файла?" style="rhombus;whiteSpace=wrap;html=1;" parent="1" vertex="1">
          <mxGeometry x="332" y="-160" width="120" height="90" as="geometry" />
        </mxCell>
        <mxCell id="wGbf4FxbfsjJKV3TlaPt-48" style="edgeStyle=none;rounded=0;orthogonalLoop=1;jettySize=auto;html=1;exitX=0.5;exitY=1;exitDx=0;exitDy=0;entryX=0.5;entryY=0;entryDx=0;entryDy=0;" parent="1" source="wGbf4FxbfsjJKV3TlaPt-46" target="wGbf4FxbfsjJKV3TlaPt-44" edge="1">
          <mxGeometry relative="1" as="geometry" />
        </mxCell>
        <mxCell id="wGbf4FxbfsjJKV3TlaPt-46" value="n = 0" style="rounded=0;whiteSpace=wrap;html=1;" parent="1" vertex="1">
          <mxGeometry x="332" y="-240" width="120" height="60" as="geometry" />
        </mxCell>
        <mxCell id="wGbf4FxbfsjJKV3TlaPt-55" style="edgeStyle=none;rounded=0;orthogonalLoop=1;jettySize=auto;html=1;exitX=0.5;exitY=1;exitDx=0;exitDy=0;entryX=0.5;entryY=0;entryDx=0;entryDy=0;" parent="1" source="wGbf4FxbfsjJKV3TlaPt-49" target="wGbf4FxbfsjJKV3TlaPt-53" edge="1">
          <mxGeometry relative="1" as="geometry" />
        </mxCell>
        <mxCell id="wGbf4FxbfsjJKV3TlaPt-49" value="считываем n строку" style="rounded=0;whiteSpace=wrap;html=1;" parent="1" vertex="1">
          <mxGeometry x="332" y="-40" width="120" height="60" as="geometry" />
        </mxCell>
        <mxCell id="wGbf4FxbfsjJKV3TlaPt-56" style="edgeStyle=none;rounded=0;orthogonalLoop=1;jettySize=auto;html=1;exitX=0.5;exitY=1;exitDx=0;exitDy=0;entryX=0.5;entryY=0;entryDx=0;entryDy=0;" parent="1" target="wGbf4FxbfsjJKV3TlaPt-54" edge="1">
          <mxGeometry relative="1" as="geometry">
            <mxPoint x="392" y="139" as="sourcePoint" />
            <mxPoint x="390.5" y="170" as="targetPoint" />
          </mxGeometry>
        </mxCell>
        <mxCell id="wGbf4FxbfsjJKV3TlaPt-60" value="да" style="edgeLabel;html=1;align=center;verticalAlign=middle;resizable=0;points=[];" parent="wGbf4FxbfsjJKV3TlaPt-56" vertex="1" connectable="0">
          <mxGeometry x="-0.2098" y="-1" relative="1" as="geometry">
            <mxPoint as="offset" />
          </mxGeometry>
        </mxCell>
        <mxCell id="wGbf4FxbfsjJKV3TlaPt-61" style="edgeStyle=none;rounded=0;orthogonalLoop=1;jettySize=auto;html=1;exitX=1;exitY=0.5;exitDx=0;exitDy=0;entryX=1;entryY=0.5;entryDx=0;entryDy=0;" parent="1" source="wGbf4FxbfsjJKV3TlaPt-53" target="wGbf4FxbfsjJKV3TlaPt-57" edge="1">
          <mxGeometry relative="1" as="geometry">
            <mxPoint x="520" y="320" as="targetPoint" />
            <Array as="points">
              <mxPoint x="520" y="90" />
              <mxPoint x="520" y="340" />
            </Array>
          </mxGeometry>
        </mxCell>
        <mxCell id="wGbf4FxbfsjJKV3TlaPt-64" value="нет" style="edgeLabel;html=1;align=center;verticalAlign=middle;resizable=0;points=[];" parent="wGbf4FxbfsjJKV3TlaPt-61" vertex="1" connectable="0">
          <mxGeometry x="-0.1164" y="2" relative="1" as="geometry">
            <mxPoint as="offset" />
          </mxGeometry>
        </mxCell>
        <mxCell id="wGbf4FxbfsjJKV3TlaPt-53" value="есть ключ равный первому элементу?" style="rhombus;whiteSpace=wrap;html=1;" parent="1" vertex="1">
          <mxGeometry x="321.5" y="39" width="141" height="100" as="geometry" />
        </mxCell>
        <mxCell id="wGbf4FxbfsjJKV3TlaPt-63" style="edgeStyle=none;rounded=0;orthogonalLoop=1;jettySize=auto;html=1;exitX=0.5;exitY=1;exitDx=0;exitDy=0;entryX=0.5;entryY=0;entryDx=0;entryDy=0;" parent="1" source="wGbf4FxbfsjJKV3TlaPt-54" target="wGbf4FxbfsjJKV3TlaPt-57" edge="1">
          <mxGeometry relative="1" as="geometry" />
        </mxCell>
        <mxCell id="wGbf4FxbfsjJKV3TlaPt-54" value="значение -= третий элемент" style="rounded=0;whiteSpace=wrap;html=1;" parent="1" vertex="1">
          <mxGeometry x="332" y="180" width="120" height="60" as="geometry" />
        </mxCell>
        <mxCell id="wGbf4FxbfsjJKV3TlaPt-57" value="n += 1" style="rounded=0;whiteSpace=wrap;html=1;" parent="1" vertex="1">
          <mxGeometry x="332" y="310" width="120" height="60" as="geometry" />
        </mxCell>
        <mxCell id="wGbf4FxbfsjJKV3TlaPt-74" style="edgeStyle=none;rounded=0;orthogonalLoop=1;jettySize=auto;html=1;exitX=0.5;exitY=1;exitDx=0;exitDy=0;entryX=0.5;entryY=0;entryDx=0;entryDy=0;" parent="1" source="wGbf4FxbfsjJKV3TlaPt-65" target="wGbf4FxbfsjJKV3TlaPt-68" edge="1">
          <mxGeometry relative="1" as="geometry" />
        </mxCell>
        <mxCell id="wGbf4FxbfsjJKV3TlaPt-65" value="закрытие файла &quot;позиция&quot;" style="rounded=0;whiteSpace=wrap;html=1;" parent="1" vertex="1">
          <mxGeometry x="332" y="400" width="120" height="60" as="geometry" />
        </mxCell>
        <mxCell id="wGbf4FxbfsjJKV3TlaPt-75" style="edgeStyle=none;rounded=0;orthogonalLoop=1;jettySize=auto;html=1;exitX=0.5;exitY=1;exitDx=0;exitDy=0;entryX=0.5;entryY=0;entryDx=0;entryDy=0;" parent="1" source="wGbf4FxbfsjJKV3TlaPt-68" target="wGbf4FxbfsjJKV3TlaPt-69" edge="1">
          <mxGeometry relative="1" as="geometry" />
        </mxCell>
        <mxCell id="wGbf4FxbfsjJKV3TlaPt-68" value="открытие файла &quot;свободные ячейки&quot;" style="rounded=0;whiteSpace=wrap;html=1;" parent="1" vertex="1">
          <mxGeometry x="331.5" y="485" width="120" height="60" as="geometry" />
        </mxCell>
        <mxCell id="wGbf4FxbfsjJKV3TlaPt-76" style="edgeStyle=none;rounded=0;orthogonalLoop=1;jettySize=auto;html=1;exitX=0.5;exitY=1;exitDx=0;exitDy=0;entryX=0.5;entryY=0;entryDx=0;entryDy=0;" parent="1" source="wGbf4FxbfsjJKV3TlaPt-69" target="wGbf4FxbfsjJKV3TlaPt-70" edge="1">
          <mxGeometry relative="1" as="geometry" />
        </mxCell>
        <mxCell id="wGbf4FxbfsjJKV3TlaPt-69" value="вывод ключей и значений из словаря" style="rounded=0;whiteSpace=wrap;html=1;" parent="1" vertex="1">
          <mxGeometry x="332" y="570" width="120" height="60" as="geometry" />
        </mxCell>
        <mxCell id="wGbf4FxbfsjJKV3TlaPt-77" style="edgeStyle=none;rounded=0;orthogonalLoop=1;jettySize=auto;html=1;exitX=0.5;exitY=1;exitDx=0;exitDy=0;entryX=0.5;entryY=0;entryDx=0;entryDy=0;" parent="1" source="wGbf4FxbfsjJKV3TlaPt-70" target="wGbf4FxbfsjJKV3TlaPt-73" edge="1">
          <mxGeometry relative="1" as="geometry" />
        </mxCell>
        <mxCell id="wGbf4FxbfsjJKV3TlaPt-70" value="закрытие файла &quot;свободные ячейки&quot;" style="rounded=0;whiteSpace=wrap;html=1;" parent="1" vertex="1">
          <mxGeometry x="332" y="650" width="120" height="60" as="geometry" />
        </mxCell>
        <mxCell id="wGbf4FxbfsjJKV3TlaPt-73" value="конец программы" style="ellipse;whiteSpace=wrap;html=1;align=center;newEdgeStyle={&quot;edgeStyle&quot;:&quot;entityRelationEdgeStyle&quot;,&quot;startArrow&quot;:&quot;none&quot;,&quot;endArrow&quot;:&quot;none&quot;,&quot;segment&quot;:10,&quot;curved&quot;:1,&quot;sourcePerimeterSpacing&quot;:0,&quot;targetPerimeterSpacing&quot;:0};treeFolding=1;treeMoving=1;" parent="1" vertex="1">
          <mxGeometry x="327.25" y="730" width="128.5" height="50" as="geometry" />
        </mxCell>
      </root>
    </mxGraphModel>
  </diagram>
</mxfile>
